<svg id="Layer_1" data-name="Layer 1" xmlns="http://www.w3.org/2000/svg" xmlns:xlink="http://www.w3.org/1999/xlink" viewBox="0 0 229.52 229.52"><defs><style>.cls-1{fill:#1c6c31;}.cls-2{fill:url(#linear-gradient);}.cls-3{fill:#fff;}.cls-4{fill:#447034;}</style><linearGradient id="linear-gradient" x1="114.76" y1="20.19" x2="114.76" y2="64.76" gradientUnits="userSpaceOnUse"><stop offset="0" stop-color="#f6e339"/><stop offset="0.14" stop-color="#f0d035"/><stop offset="0.43" stop-color="#df9f2a"/><stop offset="0.83" stop-color="#c55019"/><stop offset="1" stop-color="#b92e11"/></linearGradient></defs><title>Iconografia GUEMBE</title><path class="cls-1" d="M23.64,160.58c-5.13,0-8.78-1.05-12.25-3.34a1.08,1.08,0,0,1-.25-1.55l3.28-5a0.92,0.92,0,0,1,1.42-.31,14.71,14.71,0,0,0,7.42,2c3.9,0,5.88-1.48,5.81-6.06a20,20,0,0,1-5.75.93c-8,0-13.49-4.83-13.49-13.24V129c0-9.65,6.43-13.92,14.85-13.92a36.65,36.65,0,0,1,12.87,2.47,1.29,1.29,0,0,1,.8,1.3V145C38.36,155.57,34,160.58,23.64,160.58Zm0.93-21.4a7.57,7.57,0,0,0,4.33-1.05v-14a13,13,0,0,0-4.14-.62c-3.34,0-5.32,1.36-5.32,5.26v5.44C19.43,137.81,21.48,139.17,24.57,139.17Z"/><path class="cls-1" d="M70.78,115.91A1,1,0,0,1,71.89,117v28.15a1.29,1.29,0,0,1-.8,1.3,34.62,34.62,0,0,1-12.74,2.47c-9.34,0-14.6-5-14.6-14.35V117a1,1,0,0,1,1.11-1.05h7.3A1,1,0,0,1,53.27,117V134.6c0,4.52,1.86,5.94,5.07,5.94a12.06,12.06,0,0,0,4.08-.62V117a1,1,0,0,1,1.05-1.05h7.3ZM51.35,112a4.58,4.58,0,1,1,0-9.16A4.58,4.58,0,0,1,51.35,112ZM65,112a4.58,4.58,0,1,1,0-9.16A4.58,4.58,0,0,1,65,112Z"/><path class="cls-1" d="M104.8,134.16a1,1,0,0,1-1.11,1.05H86.18v1c0,3.15,2,4.76,5.32,4.76a15.21,15.21,0,0,0,7.86-2.23,0.88,0.88,0,0,1,1.42.25l3.22,4.27a1,1,0,0,1-.19,1.55,20,20,0,0,1-12.62,4.08c-8,0-14.54-4.27-14.54-12.87v-7.79C76.65,119,83.15,115,91,115c7.61,0,13.79,3.84,13.79,13.18v5.94ZM90.94,122.91c-2.85,0-4.76,1.48-4.76,4.89v1.3h9.53v-1.3C95.71,124.45,93.73,122.91,90.94,122.91Z"/><path class="cls-1" d="M139.87,115.11c8.17,0,13.79,4.83,13.79,13.55V147a1,1,0,0,1-1.05,1.11h-7.18a1,1,0,0,1-1.11-1.11V128.35c0-3-1.48-4.83-4.76-4.83a8.58,8.58,0,0,0-4,1,12.17,12.17,0,0,1,.62,4V147a1,1,0,0,1-1.05,1.11h-7.18a1,1,0,0,1-1.11-1.11V128.35c0-3.22-1.48-4.89-4.52-4.89a12.92,12.92,0,0,0-3.65.56v23a1,1,0,0,1-1.11,1.11h-7.18a1,1,0,0,1-1.11-1.11V118.88a1.39,1.39,0,0,1,.87-1.36,33,33,0,0,1,12.06-2.41,14.3,14.3,0,0,1,8.41,2.6A18.67,18.67,0,0,1,139.87,115.11Z"/><path class="cls-1" d="M174.33,115c7.92,0,13.36,5.32,13.36,13.67v6.12c0,8.85-6,14-14.66,14A41.59,41.59,0,0,1,160,146.66a1.26,1.26,0,0,1-.87-1.3V105a1,1,0,0,1,1.11-1.11h7.3a1,1,0,0,1,1.05,1.11V116.1A18,18,0,0,1,174.33,115Zm3.77,20V128.6c0-3.59-1.86-5.32-5.2-5.32a9.33,9.33,0,0,0-4.33,1.05v15.47a12.87,12.87,0,0,0,4.27.68C176.18,140.47,178.1,138.86,178.1,135Z"/><path class="cls-1" d="M219.67,134.16a1,1,0,0,1-1.11,1.05H201.05v1c0,3.15,2,4.76,5.32,4.76a15.21,15.21,0,0,0,7.86-2.23,0.88,0.88,0,0,1,1.42.25l3.22,4.27a1,1,0,0,1-.19,1.55,20,20,0,0,1-12.62,4.08c-8,0-14.54-4.27-14.54-12.87v-7.79c0-9.22,6.5-13.18,14.35-13.18,7.61,0,13.79,3.84,13.79,13.18v5.94ZM201.24,112a0.76,0.76,0,0,1-.68-1.3l5.07-8a1.45,1.45,0,0,1,1.3-.74h7c0.87,0,1.18.62,0.56,1.36l-6.56,8.1a1.55,1.55,0,0,1-1.3.62h-5.38Zm4.58,10.89c-2.85,0-4.76,1.48-4.76,4.89v1.3h9.53v-1.3C210.58,124.45,208.6,122.91,205.81,122.91Z"/><path class="cls-2" d="M107.29,70.05a38.91,38.91,0,0,0,6.8,1.7l0.05,0,0.27,0,0.2,0h0.3l0.2,0,0.26,0,0.06,0a38.85,38.85,0,0,0,6.8-1.7c2.3-.71,14.6-8.68,25.52-10.32a32,32,0,0,0,.37-4.85c0-18-14.94-32.58-33.36-32.58S81.39,36.88,81.39,54.88a32.13,32.13,0,0,0,.37,4.85C92.69,61.37,105,69.34,107.29,70.05Z"/><path class="cls-1" d="M150.56,78.43l-19.37,1.15c0.24-.68-0.47,1.19,15.27-4.22,12.3-4.23,21.66-2.71,21.66-2.71-2.42-12.86-20.1-4.91-27.55-.85-7.06,3.85-6.17.7-6.17,0.7,5-10.69,26.34-9.68,26.34-9.68-10.56-10.34-35.27,6.18-38.63,7.22a38.85,38.85,0,0,1-6.8,1.7l-0.06,0-0.26,0-0.2,0h-0.3l-0.2,0-0.27,0-0.05,0a38.91,38.91,0,0,1-6.8-1.7c-3.36-1-28.07-17.57-38.63-7.22,0,0,21.31-1,26.33,9.68,0,0,.89,3.15-6.17-0.7-7.45-4.06-25.13-12-27.55.85,0,0,9.36-1.52,21.66,2.71,15.75,5.41,15,3.55,15.28,4.22L78.72,78.43s-26.9-.1-21.24,6.32C64.33,92.5,69.68,90,69.68,90a10.41,10.41,0,0,1,5.24-3.51c3.58-1.07,8.56-1.91,18.06-1.74s2.72,1.33-.32,2-22.28,4.05-16,8.64c0,0,5.71,3.41,16.27,4.33a4,4,0,0,1,2.27-4.93c3.41-1.45,5.6-2.8,9.27-2.94,0,0,7.61-.37-0.27,4.16-7.4,4.59-4,4.19-4,4.19l14.48,7.41,14.47-7.41s3.39,0.4-4-4.19c-7.88-4.53-.27-4.16-0.27-4.16,3.67,0.14,5.85,1.49,9.27,2.94a4,4,0,0,1,2.26,4.93c10.56-.93,16.28-4.33,16.28-4.33,6.25-4.59-13-7.94-16-8.64s-9.8-1.86-.32-2,14.48,0.67,18.06,1.74A10.41,10.41,0,0,1,159.6,90s5.35,2.54,12.2-5.21C177.46,78.33,150.56,78.43,150.56,78.43Z"/><path class="cls-3" d="M142.86,64.1a2,2,0,0,1-1-.09,0.36,0.36,0,0,0,.4-0.3c0-.31-0.33-0.34-0.94-0.34s-1,0-1.51,0a5.34,5.34,0,0,1-1-.17,7.8,7.8,0,0,0-2.33.22c-2.68.26-6-2.94-6.43-3.47a7.09,7.09,0,0,1-1-1.79c-0.43-1.2-.77-2.43-1.11-3.66a8.33,8.33,0,0,1-.32-2.39,12.5,12.5,0,0,0-.81-4.74,3.91,3.91,0,0,0-.66-1.16,11.38,11.38,0,0,0-4.62-3,8.69,8.69,0,0,1-2.41-1.29,1.71,1.71,0,0,1-.77-1.17c0-.29,0-0.57-0.07-0.86,0-.53-0.09-1.05-0.09-1.58a1.38,1.38,0,0,1,.36-1,3.35,3.35,0,0,0,.76-1.29,2.06,2.06,0,0,0-.1-1.74,1.5,1.5,0,0,1-.23-0.77c0-.31,0-0.61,0-0.92-0.07-.86,0-4.41-4.29-4.41s-4.22,3.55-4.29,4.41c0,0.3,0,.61,0,0.92a1.5,1.5,0,0,1-.23.77A2.06,2.06,0,0,0,110,36a3.35,3.35,0,0,0,.76,1.29,1.38,1.38,0,0,1,.36,1c0,0.54,0,1.07-.09,1.61,0,0.28,0,.56-0.07.84a1.71,1.71,0,0,1-.77,1.17,8.69,8.69,0,0,1-2.41,1.29,11.38,11.38,0,0,0-4.62,3,3.91,3.91,0,0,0-.66,1.16,12.5,12.5,0,0,0-.81,4.74,8.33,8.33,0,0,1-.32,2.39c-0.34,1.23-.68,2.46-1.11,3.66a7.09,7.09,0,0,1-1,1.79c-0.39.53-3.75,3.73-6.43,3.47a7.8,7.8,0,0,0-2.33-.22,5.34,5.34,0,0,1-1,.17c-0.5,0-1,0-1.51,0s-0.94,0-.94.34a0.36,0.36,0,0,0,.4.3,2,2,0,0,1-1,.09c-0.79-.1-1.14.12-0.5,0.5a8.77,8.77,0,0,0,2.58.65,31.84,31.84,0,0,0,3.35.2,20.22,20.22,0,0,0,2.64-.25,7.26,7.26,0,0,0,1.31-.41,0.71,0.71,0,0,1,.37-0.07c-1.73,3.18,2.3,11.63,12.77,14a56.79,56.79,0,0,0,11.54,0c10.39-2.36,14.39-10.76,12.66-13.93a0.71,0.71,0,0,1,.37.07,7.26,7.26,0,0,0,1.31.41,20.22,20.22,0,0,0,2.64.25,31.84,31.84,0,0,0,3.35-.2,8.77,8.77,0,0,0,2.58-.65C144,64.22,143.66,64,142.86,64.1Zm-37.15,3.12a2.39,2.39,0,0,1-.81-0.55c-0.5-.57-1-1.14-1.5-1.73a3.4,3.4,0,0,0-1.89-1.22,0.35,0.35,0,0,1-.26-0.11,0.39,0.39,0,0,1,.28-0.17A2.81,2.81,0,0,0,103.16,62c0.35-.67.63-1.37,1-2a15,15,0,0,0,1.24-4.32,1.81,1.81,0,0,1,.52-1.11,0.21,0.21,0,0,1,.18-0.12,32.12,32.12,0,0,1,1.08,5.87C107.36,62.83,107.43,67.93,105.71,67.22Zm22.05-3.49A3.4,3.4,0,0,0,125.88,65c-0.48.59-1,1.15-1.5,1.73a2.39,2.39,0,0,1-.81.55c-1.72.71-1.65-4.4-1.42-7a32.12,32.12,0,0,1,1.08-5.87,0.21,0.21,0,0,1,.18.12,1.81,1.81,0,0,1,.52,1.11,15,15,0,0,0,1.24,4.32c0.32,0.68.6,1.37,1,2a2.81,2.81,0,0,0,1.62,1.48,0.39,0.39,0,0,1,.28.17A0.35,0.35,0,0,1,127.76,63.74Z"/><path class="cls-4" d="M80.49,150.78a0.37,0.37,0,0,1,.17.29,0.28,0.28,0,0,1-.35.29,0.54,0.54,0,0,1-.27-0.09,2.48,2.48,0,0,0-1-.35q-0.9,0-2,1.78-3.9,6.32-5.65,16.58,1.5-2.54,2.24-3.6a20.87,20.87,0,0,1,3.12-3.63,2.23,2.23,0,0,1,1.4-.71,2.33,2.33,0,0,1,1,.4,1.75,1.75,0,0,1,1.17,1.84,17.91,17.91,0,0,1-1.4,5.51,12.6,12.6,0,0,1-2.67,4.15,1.29,1.29,0,0,1-.9.42q-0.94,0-2.6-2.14a0.74,0.74,0,0,1-.19-0.42,0.21,0.21,0,0,1,.25-0.22,0.72,0.72,0,0,1,.48.2,2.47,2.47,0,0,0,1.46.72,1.51,1.51,0,0,0,1.14-.69,12.88,12.88,0,0,0,1.81-3.46,12.66,12.66,0,0,0,.93-4.4q0-.75-0.51-0.75a1.07,1.07,0,0,0-.65.3,20.39,20.39,0,0,0-3.61,4.37A24.53,24.53,0,0,0,71,173a0.59,0.59,0,0,1-.4.53,0.59,0.59,0,0,1-.3-0.13q-0.74-.49-0.84-0.58a1,1,0,0,1-.29-0.75,2.73,2.73,0,0,1,.07-0.56,80.15,80.15,0,0,1,4.34-15.69q2-4.87,3.59-6.33a1.22,1.22,0,0,1,.81-0.39,1.86,1.86,0,0,1,1,.48Z"/><path class="cls-4" d="M85.41,163.39a57.48,57.48,0,0,1-1.81,6.49,9.91,9.91,0,0,0,1.16-1.37,0.27,0.27,0,0,1,.2-0.13q0.23,0,.06.4-0.07.16-1.21,2a14.39,14.39,0,0,0-1.27,2.46,0.48,0.48,0,0,1-.48.33,2.11,2.11,0,0,1-.94-0.33,0.67,0.67,0,0,1-.38-0.3,1.13,1.13,0,0,1,.16-0.38,23.83,23.83,0,0,0,1.73-4.6,25.46,25.46,0,0,0,1-4.64q0-.65-0.13-0.65a1,1,0,0,0-.46.32l-0.9.84q-0.48.43-.48,0a0.53,0.53,0,0,1,.13-0.29,20.47,20.47,0,0,1,1.45-1.81,0.64,0.64,0,0,1,.45-0.25,1.39,1.39,0,0,1,.68.32,5.89,5.89,0,0,1,.74.22,0.81,0.81,0,0,1,.33.75A3.5,3.5,0,0,1,85.41,163.39Zm2-6.33a0.49,0.49,0,0,1,.23.39,2.58,2.58,0,0,1-1.24,1.3,2,2,0,0,1-1.59.4,1.89,1.89,0,0,1-.75-0.32,0.65,0.65,0,0,1-.15-0.18,0.17,0.17,0,0,1,0-.15,0.16,0.16,0,0,1,.17,0,17.72,17.72,0,0,0,1.75-1.66,1,1,0,0,1,.48-0.38A3,3,0,0,1,87.45,157.05Z"/><path class="cls-4" d="M96.24,164.07a14.66,14.66,0,0,1-.62,3.41,12.47,12.47,0,0,1-2.66,5.2,2.72,2.72,0,0,1-2,1,4.37,4.37,0,0,1-1.11-.19,3.54,3.54,0,0,1-2.21-.85,2.61,2.61,0,0,1-.87-2.15,15.31,15.31,0,0,1,1.06-4.28,13.6,13.6,0,0,1,2.28-4.31,1.51,1.51,0,0,1,.93-0.64,3.18,3.18,0,0,1,1.59,1l1.24-.53a2.53,2.53,0,0,1,.72-0.16,1.86,1.86,0,0,1,1.26,1.06A2.34,2.34,0,0,1,96.24,164.07Zm-1.66.42q0.1-1,.1-1.23,0-.61-0.38-0.61a1.63,1.63,0,0,0-.38.06l-2.24.91a2.5,2.5,0,0,1-.45.16A0.36,0.36,0,0,1,91,163.5a10.58,10.58,0,0,0-1.56,3,16.22,16.22,0,0,0-.78,2.72,7.71,7.71,0,0,0-.16,1.47q0,2.23,1.37,2.17a2.3,2.3,0,0,0,1.19-.43,7.47,7.47,0,0,0,2.27-3.3A15.45,15.45,0,0,0,94.58,164.49Z"/><path class="cls-4" d="M108.35,164.31a17.71,17.71,0,0,1-1.29,5.25,10.33,10.33,0,0,1-2.05,3.57,1.73,1.73,0,0,1-1.17.53,5,5,0,0,1-2.21-1.07,0.55,0.55,0,0,1-.3-0.42q0-.27.39-0.27a1.61,1.61,0,0,1,.46.1,1.64,1.64,0,0,0,.49.1,2.33,2.33,0,0,0,1.89-1.34,14.9,14.9,0,0,0,1.34-3.11,11.92,11.92,0,0,0,.67-4.18q0-.84-0.56-0.84a1.84,1.84,0,0,0-1.13.64A24.52,24.52,0,0,0,98.29,174a38,38,0,0,0-1.45,6.56q0,0.1-.39,5-0.06.71-.35,0.71a2.34,2.34,0,0,1-1.08-.71,1.33,1.33,0,0,1-.43-1.27,74.11,74.11,0,0,1,3.48-16q2.24-6.91,3.56-9a2,2,0,0,1,1.39-1.17,6.21,6.21,0,0,1,2.31,1.08,0.39,0.39,0,0,1,.23.3q0,0.22-.35.22l-0.29,0-0.3,0q-0.91,0-1.89,1.55a20.48,20.48,0,0,0-1.46,3,32.29,32.29,0,0,0-1.27,3.43,25.92,25.92,0,0,1,4.94-6,1.26,1.26,0,0,1,.78-0.38A4.54,4.54,0,0,1,108.35,164.31Z"/><path class="cls-4" d="M119.54,163.59a45.54,45.54,0,0,0-1.84,6.19,7.65,7.65,0,0,0,.57-0.62,6,6,0,0,1,.44-0.49,0.56,0.56,0,0,1,.43-0.26,0.19,0.19,0,0,1,.22.22,0.57,0.57,0,0,1-.12.3,11.72,11.72,0,0,0-1.81,4.06,0.58,0.58,0,0,1-.39.58,2.19,2.19,0,0,1-.91-0.46,1.11,1.11,0,0,1-.45-0.43,1.33,1.33,0,0,1,0-.64,33,33,0,0,1,1.52-6.1,34.5,34.5,0,0,1-3.43,4.51,20.1,20.1,0,0,1-2.73,2.75,1.91,1.91,0,0,1-.93.42,1.6,1.6,0,0,1-.8-0.42,1.42,1.42,0,0,1-.77-1.27,2.58,2.58,0,0,1,0-.36,13.81,13.81,0,0,1,1.88-5,20,20,0,0,1,3.72-4.79,1.84,1.84,0,0,1,1.21-.62,4.88,4.88,0,0,1,2,1.37,0.33,0.33,0,0,1,.13.25q0,0.23-.3.23a0.54,0.54,0,0,1-.22,0,1.6,1.6,0,0,0-1.65,0,13.74,13.74,0,0,0-3,3.51,14,14,0,0,0-2.3,5.2,1.33,1.33,0,0,0,0,.19,0.29,0.29,0,0,0,.29.36,1.86,1.86,0,0,0,1.17-.68,38.42,38.42,0,0,0,3.47-4,20.06,20.06,0,0,0,2.43-3.73q0.39-.93.51-1.3a0.76,0.76,0,0,1,.4-0.65,2.81,2.81,0,0,1,1,.59,0.79,0.79,0,0,1,.36.45A1.43,1.43,0,0,1,119.54,163.59Z"/><path class="cls-4" d="M130.13,162.35a12.74,12.74,0,0,1-.51,3.61,0.57,0.57,0,0,1-.43.52,2.33,2.33,0,0,1-.9-0.58,0.7,0.7,0,0,1-.17-0.82,7.61,7.61,0,0,0,.4-2.11q0-.27-0.12-0.27a1.15,1.15,0,0,0-.56.52,27.51,27.51,0,0,0-4.5,8.79q-0.48,1.55-.81,1.55a6.21,6.21,0,0,1-1.14-.51,0.76,0.76,0,0,1-.33-1,63.76,63.76,0,0,1,2.46-8.44,16.68,16.68,0,0,0-1.36,1.55,0.36,0.36,0,0,1-.32.17,0.21,0.21,0,0,1-.25-0.22,0.51,0.51,0,0,1,.12-0.29q0.71-.85,1.89-2.6a1,1,0,0,1,.72-0.64,3.18,3.18,0,0,1,1.06.4,0.36,0.36,0,0,1,.14.62,16.47,16.47,0,0,0-1.2,3q-0.84,2.47-1.16,3.87a40.92,40.92,0,0,1,4.47-7.73,1.29,1.29,0,0,1,.77-0.64,1.33,1.33,0,0,1,.71.35,2,2,0,0,1,.77.19A0.8,0.8,0,0,1,130.13,162.35Z"/><path class="cls-4" d="M140.1,162.29a0.73,0.73,0,0,1,.25.55,9.68,9.68,0,0,1-.69,1.85,53.12,53.12,0,0,0-2.17,6.72q-1,3.51-1.32,5.45a17.25,17.25,0,0,1,1.33-2.23,0.5,0.5,0,0,1,.42-0.22,0.29,0.29,0,0,1,.35.32,0.61,0.61,0,0,1-.09.29,22.59,22.59,0,0,0-2.91,10.09q-0.07,1.33-.33,1.33a3.87,3.87,0,0,1-1.33-1.06,1.32,1.32,0,0,1-.39-1q0-.14.27-2,0.48-3.2,1.63-7.91,1-3.89,1.42-5.23a14.39,14.39,0,0,1-3.43,4.08,1,1,0,0,1-.61.22,1.51,1.51,0,0,1-1-.42,3.64,3.64,0,0,1-1.34-.68,1.61,1.61,0,0,1-.43-1.27,12.8,12.8,0,0,1,1.39-4.89,13.4,13.4,0,0,1,2.62-3.95,2.57,2.57,0,0,1,1.69-.88,4.82,4.82,0,0,1,2.41,1.5,0.5,0.5,0,0,1,.22.33q0,0.19-.3.19a1,1,0,0,1-.35-0.07,4.33,4.33,0,0,0-1.29-.35,2.29,2.29,0,0,0-1.65,1.06,15.8,15.8,0,0,0-2,3.25,9.88,9.88,0,0,0-1.11,4.09q0,1,.68,1a1.38,1.38,0,0,0,.91-0.48A19.9,19.9,0,0,0,136.1,168a26.67,26.67,0,0,0,1.72-3.25,13.87,13.87,0,0,0,.8-2.21l0.06-.58a0.36,0.36,0,0,1,.27-0.38A2.24,2.24,0,0,1,140.1,162.29Z"/><path class="cls-4" d="M151.91,162.74a29.87,29.87,0,0,0-2.88,8.39q0.4-.71,1-1.81a0.25,0.25,0,0,1,.23-0.2,0.22,0.22,0,0,1,.22.27,0.48,0.48,0,0,1,0,.19,22.85,22.85,0,0,0-1.21,3.25,0.75,0.75,0,0,1-.46.72,2.84,2.84,0,0,1-1.13-.56,1,1,0,0,1-.3-1.13,35.66,35.66,0,0,1,1.46-5.48,51.58,51.58,0,0,1-4.68,6.69,1.21,1.21,0,0,1-.91.48,1.92,1.92,0,0,1-1-.33,1,1,0,0,1-1-1,2.29,2.29,0,0,1,0-.35,23.22,23.22,0,0,1,1.5-6.87l-0.74.68a0.24,0.24,0,0,1-.29.09q-0.12-.09,0-0.33a10.83,10.83,0,0,0,.93-1.5,7.05,7.05,0,0,1,.94-1.75,0.72,0.72,0,0,1,.55-0.32,2.52,2.52,0,0,1,1.14.46,0.35,0.35,0,0,1,.2.26l-0.32.48a15.67,15.67,0,0,0-1.53,3.87,18.79,18.79,0,0,0-.9,4.9q0,0.62.26,0.62a1.49,1.49,0,0,0,.75-0.53,34.54,34.54,0,0,0,3.22-4.48,38.64,38.64,0,0,0,2.26-3.79,4.55,4.55,0,0,1,1.06-1.73,0.87,0.87,0,0,1,.46-0.17,2.23,2.23,0,0,1,.78.3,1,1,0,0,1,.58.45,0.2,0.2,0,0,1-.1.12A0.44,0.44,0,0,0,151.91,162.74Z"/><path class="cls-4" d="M160.17,169.1q-3.51,4.5-4.94,4.5a2.92,2.92,0,0,1-1.72-.94,1.54,1.54,0,0,1-1.08-1.36,2,2,0,0,1,0-.33,24,24,0,0,1,1.06-4.38,0.78,0.78,0,0,1-.53-0.52q0-.2.3-0.2a1,1,0,0,1,.48.13,18.17,18.17,0,0,1,2.31-4.11,1.77,1.77,0,0,1,1.2-.81,4.65,4.65,0,0,1,1.21.42,0.37,0.37,0,0,1,.25-0.51h0.68q0.62,0,.62.22a1.84,1.84,0,0,1,0,.25,1.8,1.8,0,0,0,0,.38q0,0.52,0,1.29t0,1a2.88,2.88,0,0,1-1,2.5,3.36,3.36,0,0,1-2,.65,10.06,10.06,0,0,1-2-.32,8,8,0,0,0-.55,1.75,11.33,11.33,0,0,0-.38,2.92q0,0.75.48,0.75a1.56,1.56,0,0,0,.45-0.09q1.68-.59,4.67-3.61a0.54,0.54,0,0,1,.38-0.19,0.24,0.24,0,0,1,.27.26A0.53,0.53,0,0,1,160.17,169.1Zm-1.69-6.39q0-.56-0.25-0.56a0.91,0.91,0,0,0-.46.23,9.23,9.23,0,0,0-2.49,4q0.29,0,1,.09a2.25,2.25,0,0,0,1.75-.53,2.11,2.11,0,0,0,.48-1.43Q158.48,165.24,158.48,162.71Z"/><path class="cls-1" d="M46.35,205.89a3.48,3.48,0,0,0,1.77.5,1.37,1.37,0,0,0,1.6-1.3c0-.71-0.41-1.12-1.44-1.52-1.25-.44-2-1.09-2-2.16a2.2,2.2,0,0,1,2.47-2.07,3.47,3.47,0,0,1,1.69.37l-0.27.8a3,3,0,0,0-1.45-.36,1.23,1.23,0,0,0-1.44,1.14c0,0.71.46,1.06,1.52,1.47,1.29,0.5,1.95,1.12,1.95,2.24s-0.87,2.2-2.67,2.2a3.94,3.94,0,0,1-1.95-.49Z"/><path class="cls-1" d="M54.89,204.7l-0.79,2.4h-1l2.59-7.63h1.19l2.6,7.63H58.41l-0.82-2.4H54.89Zm2.5-.77-0.75-2.2c-0.17-.5-0.28-1-0.4-1.39h0c-0.11.45-.24,0.92-0.38,1.38l-0.75,2.21h2.3Z"/><path class="cls-1" d="M62.17,207.09v-7.63h1.08l2.45,3.86a21.67,21.67,0,0,1,1.37,2.48h0c-0.09-1-.11-1.95-0.11-3.14v-3.19H67.9v7.63h-1l-2.42-3.87a24.38,24.38,0,0,1-1.43-2.55h0c0.06,1,.08,1.88.08,3.15v3.26H62.17Z"/><path class="cls-1" d="M72.66,200.3H70.33v-0.84H76v0.84H73.65v6.79h-1V200.3Z"/><path class="cls-1" d="M78.8,204.7L78,207.09H77l2.59-7.63h1.19l2.6,7.63H82.33l-0.81-2.4H78.8Zm2.5-.77-0.75-2.2c-0.17-.5-0.28-1-0.4-1.39h0c-0.11.45-.24,0.92-0.38,1.38L79,203.93h2.3Z"/><path class="cls-1" d="M95.41,206.85a4.9,4.9,0,0,1-2,.36,3.57,3.57,0,0,1-3.77-3.86,3.8,3.8,0,0,1,4-4,4.1,4.1,0,0,1,1.81.34l-0.24.8a3.59,3.59,0,0,0-1.54-.32,2.84,2.84,0,0,0-3,3.15,2.77,2.77,0,0,0,2.93,3.07,3.94,3.94,0,0,0,1.61-.32Z"/><path class="cls-1" d="M98.23,199.57a10.23,10.23,0,0,1,1.89-.16,3.12,3.12,0,0,1,2.21.62,1.9,1.9,0,0,1,.6,1.45,2,2,0,0,1-1.44,1.95v0a1.9,1.9,0,0,1,1.12,1.54,12.09,12.09,0,0,0,.59,2.09h-1a9.89,9.89,0,0,1-.51-1.82,1.48,1.48,0,0,0-1.53-1.48H99.21v3.31h-1v-7.53Zm1,3.48h1a1.5,1.5,0,0,0,1.72-1.45c0-1-.71-1.41-1.75-1.43a4,4,0,0,0-1,.09V203Z"/><path class="cls-1" d="M106.89,199.46V204c0,1.71.76,2.43,1.78,2.43s1.86-.75,1.86-2.43v-4.52h1v4.45c0,2.34-1.23,3.31-2.89,3.31s-2.74-.89-2.74-3.26v-4.49h1Z"/><path class="cls-1" d="M114.3,206.52l4.23-6.19v0h-3.87v-0.83h5.15v0.6l-4.21,6.17v0h4.27v0.83H114.3v-0.58Z"/><path class="cls-1" d="M128.93,203.66v0.74h-2.8v-0.74h2.8Z"/><path class="cls-1" d="M135.7,199.57a9.52,9.52,0,0,1,1.8-.16,3.15,3.15,0,0,1,2.09.56,1.6,1.6,0,0,1,.63,1.35,1.81,1.81,0,0,1-1.29,1.68v0a2,2,0,0,1,1.57,1.91,2.06,2.06,0,0,1-.65,1.53,3.83,3.83,0,0,1-2.64.71,11.48,11.48,0,0,1-1.53-.09v-7.51Zm1,3.12h0.89a1.41,1.41,0,0,0,1.65-1.28c0-.89-0.68-1.25-1.68-1.25a4.21,4.21,0,0,0-.87.07v2.46Zm0,3.66a5.25,5.25,0,0,0,.83,0c1,0,2-.37,2-1.48s-0.89-1.47-2-1.47h-0.82v2.91Z"/><path class="cls-1" d="M149.95,203.2c0,2.63-1.6,4-3.54,4s-3.43-1.56-3.43-3.87,1.51-4,3.54-4S149.95,200.94,149.95,203.2Zm-5.92.12c0,1.63.88,3.09,2.43,3.09s2.45-1.44,2.45-3.17c0-1.52-.79-3.1-2.43-3.1S144,201.65,144,203.32Z"/><path class="cls-1" d="M152.82,199.46h1v6.8h3.26v0.83h-4.24v-7.63Z"/><path class="cls-1" d="M160.73,199.46v7.63h-1v-7.63h1Z"/><path class="cls-1" d="M165.71,207.09l-2.49-7.63h1.06l1.19,3.76c0.33,1,.61,2,0.81,2.85h0c0.22-.88.53-1.85,0.87-2.84l1.29-3.77h1.05l-2.73,7.63h-1.09Z"/><path class="cls-1" d="M172.93,199.46v7.63h-1v-7.63h1Z"/><path class="cls-1" d="M177.47,204.7l-0.79,2.4h-1l2.59-7.63h1.19l2.6,7.63H181l-0.82-2.4h-2.71Zm2.5-.77-0.75-2.2c-0.17-.5-0.28-1-0.4-1.39h0c-0.11.45-.24,0.92-0.38,1.38l-0.75,2.21H180Z"/></svg>