<svg id="Layer_1" data-name="Layer 1" xmlns="http://www.w3.org/2000/svg" xmlns:xlink="http://www.w3.org/1999/xlink" viewBox="0 0 229.52 229.52"><defs><style>.cls-1{fill:url(#linear-gradient);}.cls-2{fill:#1c6c31;}.cls-3{fill:#fff;}</style><linearGradient id="linear-gradient" x1="114.95" y1="42.16" x2="114.95" y2="114.45" gradientUnits="userSpaceOnUse"><stop offset="0" stop-color="#f6e339"/><stop offset="0.14" stop-color="#f0d035"/><stop offset="0.43" stop-color="#df9f2a"/><stop offset="0.83" stop-color="#c55019"/><stop offset="1" stop-color="#b92e11"/></linearGradient></defs><title>Iconografia GUEMBE</title><path class="cls-1" d="M102.84,123a63.12,63.12,0,0,0,11,2.75l0.09,0.07,0.43-.07,0.32,0h0.49l0.32,0,0.43,0.07,0.09-.07a63,63,0,0,0,11-2.75c3.73-1.16,23.69-14.07,41.4-16.74a52,52,0,0,0,.61-7.87c0-29.19-24.23-52.85-54.12-52.85S60.84,69.24,60.84,98.43a52.12,52.12,0,0,0,.6,7.87C79.15,109,99.11,121.88,102.84,123Z"/><path class="cls-2" d="M173,136.64c-30,1.79-31.42,1.86-31.42,1.86,0.4-1.1-.77,1.93,24.77-6.85,20-6.86,35.13-4.39,35.13-4.39-3.93-20.85-32.6-8-44.68-1.37-11.45,6.24-10,1.13-10,1.13,8.15-17.34,42.72-15.7,42.72-15.7-17.12-16.78-57.21,10-62.66,11.72a63,63,0,0,1-11,2.75l-0.09.07-0.43-.07-0.32,0h-0.49l-0.32,0-0.43.07-0.09-.07a63.12,63.12,0,0,1-11-2.75c-5.45-1.69-45.53-28.5-62.65-11.72,0,0,34.56-1.64,42.71,15.7,0,0,1.45,5.11-10-1.13C60.61,119.3,31.94,106.4,28,127.26c0,0,15.18-2.47,35.13,4.39,25.54,8.78,24.38,5.75,24.78,6.85,0,0-1.44-.07-31.42-1.86,0,0-43.64-.16-34.44,10.24,11.11,12.58,19.79,8.46,19.79,8.46a16.88,16.88,0,0,1,8.5-5.69c5.81-1.73,13.88-3.09,29.29-2.82s4.4,2.16-.52,3.28-36.14,6.57-26,14c0,0,9.26,5.52,26.39,7,0,0-1.76-5.64,3.67-8s9.08-4.55,15-4.77c0,0,12.34-.6-0.43,6.74-12,7.45-6.5,6.8-6.5,6.8l23.49,12,23.47-12s5.5,0.65-6.5-6.8c-12.79-7.35-.43-6.74-0.43-6.74,6,0.22,9.5,2.42,15,4.77s3.67,8,3.67,8c17.13-1.51,26.4-7,26.4-7,10.14-7.44-21.12-12.88-26-14s-15.9-3-.52-3.28,23.48,1.09,29.29,2.82a16.88,16.88,0,0,1,8.5,5.69s8.68,4.12,19.79-8.46C216.66,136.47,173,136.64,173,136.64Z"/><path class="cls-3" d="M160.54,113.39a3.32,3.32,0,0,1-1.69-.15,0.58,0.58,0,0,0,.65-0.49c0-.5-0.54-0.56-1.53-0.56-0.81,0-1.63,0-2.44,0a8.67,8.67,0,0,1-1.61-.28,12.66,12.66,0,0,0-3.78.35c-4.34.42-9.79-4.77-10.42-5.63a11.5,11.5,0,0,1-1.63-2.91c-0.7-1.95-1.25-3.94-1.81-5.93a13.51,13.51,0,0,1-.52-3.88,20.27,20.27,0,0,0-1.31-7.69,6.35,6.35,0,0,0-1.07-1.88,18.46,18.46,0,0,0-7.5-4.93A14.09,14.09,0,0,1,122,77.33a2.77,2.77,0,0,1-1.25-1.89c0-.47-0.07-0.93-0.11-1.4-0.08-.85-0.15-1.71-0.15-2.57a2.24,2.24,0,0,1,.59-1.59,5.44,5.44,0,0,0,1.24-2.09,3.35,3.35,0,0,0-.16-2.82,2.44,2.44,0,0,1-.38-1.24c0-.5,0-1,0-1.49-0.11-1.39,0-7.15-7-7.15s-6.85,5.76-7,7.15c0,0.49,0,1,0,1.49a2.44,2.44,0,0,1-.38,1.24,3.35,3.35,0,0,0-.16,2.82,5.44,5.44,0,0,0,1.24,2.09,2.24,2.24,0,0,1,.59,1.59c0,0.87-.08,1.74-0.15,2.61,0,0.45-.08.9-0.11,1.36a2.77,2.77,0,0,1-1.25,1.89,14.09,14.09,0,0,1-3.91,2.09,18.46,18.46,0,0,0-7.5,4.93,6.35,6.35,0,0,0-1.07,1.88,20.27,20.27,0,0,0-1.31,7.69,13.51,13.51,0,0,1-.52,3.88c-0.56,2-1.11,4-1.81,5.93a11.5,11.5,0,0,1-1.63,2.91c-0.63.86-6.08,6.05-10.42,5.63a12.66,12.66,0,0,0-3.78-.35,8.67,8.67,0,0,1-1.61.28c-0.81,0-1.63,0-2.44,0-1,0-1.53.06-1.53,0.56a0.58,0.58,0,0,0,.65.49,3.32,3.32,0,0,1-1.69.15c-1.29-.16-1.86.19-0.81,0.8a14.22,14.22,0,0,0,4.18,1.05,51.65,51.65,0,0,0,5.43.33,32.8,32.8,0,0,0,4.28-.4,11.77,11.77,0,0,0,2.12-.67,1.15,1.15,0,0,1,.6-0.12C82,119.54,88.5,133.24,105.49,137c2.8,0.62,15.87.61,18.72,0,16.86-3.83,23.33-17.45,20.53-22.59a1.15,1.15,0,0,1,.6.12,11.77,11.77,0,0,0,2.12.67,32.8,32.8,0,0,0,4.28.4,51.65,51.65,0,0,0,5.43-.33,14.22,14.22,0,0,0,4.18-1.05C162.4,113.58,161.83,113.23,160.54,113.39Zm-60.26,5.06a3.87,3.87,0,0,1-1.31-.88c-0.81-.93-1.65-1.84-2.43-2.8a5.51,5.51,0,0,0-3.06-2,0.57,0.57,0,0,1-.41-0.17,0.63,0.63,0,0,1,.46-0.27,4.55,4.55,0,0,0,2.62-2.4c0.57-1.08,1-2.21,1.54-3.31a24.33,24.33,0,0,0,2-7,2.93,2.93,0,0,1,.84-1.81,0.34,0.34,0,0,1,.29-0.2,52.1,52.1,0,0,1,1.76,9.52C103,111.32,103.06,119.61,100.28,118.45ZM136,112.79a5.51,5.51,0,0,0-3.06,2c-0.78,1-1.62,1.87-2.43,2.8a3.87,3.87,0,0,1-1.31.88c-2.78,1.16-2.68-7.13-2.3-11.31a52.1,52.1,0,0,1,1.76-9.52,0.34,0.34,0,0,1,.29.2,2.93,2.93,0,0,1,.84,1.81,24.33,24.33,0,0,0,2,7c0.53,1.1,1,2.23,1.54,3.31a4.55,4.55,0,0,0,2.62,2.4,0.63,0.63,0,0,1,.46.27A0.57,0.57,0,0,1,136,112.79Z"/></svg>