<svg id="Layer_1" data-name="Layer 1" xmlns="http://www.w3.org/2000/svg" viewBox="0 0 229.52 229.52"><defs><style>.cls-1{fill:#1c6c31;}.cls-2{fill:#447034;}</style></defs><title>Iconografia GUEMBE</title><path class="cls-1" d="M31.32,129.76a19,19,0,0,1-11.22-3.06,1,1,0,0,1-.23-1.42l3-4.59a0.84,0.84,0,0,1,1.3-.28,13.47,13.47,0,0,0,6.8,1.87c3.57,0,5.38-1.36,5.32-5.55a18.3,18.3,0,0,1-5.27.85c-7.31,0-12.35-4.42-12.35-12.12v-4.64c0-8.84,5.89-12.74,13.59-12.74a33.56,33.56,0,0,1,11.78,2.27,1.18,1.18,0,0,1,.74,1.19v24C44.8,125.18,40.84,129.76,31.32,129.76Zm0.85-19.6a6.94,6.94,0,0,0,4-1V96.34a11.91,11.91,0,0,0-3.8-.57c-3.06,0-4.87,1.25-4.87,4.81v5C27.47,108.92,29.34,110.17,32.17,110.17Z"/><path class="cls-1" d="M74.49,88.87a0.88,0.88,0,0,1,1,1V115.6a1.18,1.18,0,0,1-.74,1.19,31.7,31.7,0,0,1-11.67,2.27c-8.55,0-13.37-4.59-13.37-13.14V89.83a0.88,0.88,0,0,1,1-1h6.68a0.88,0.88,0,0,1,1,1V106c0,4.13,1.7,5.44,4.64,5.44a11,11,0,0,0,3.74-.57v-21a0.87,0.87,0,0,1,1-1h6.68ZM56.7,85.3a4.19,4.19,0,1,1,0-8.38A4.19,4.19,0,0,1,56.7,85.3Zm12.46,0a4.19,4.19,0,1,1,0-8.38A4.19,4.19,0,0,1,69.16,85.3Z"/><path class="cls-1" d="M105.64,105.58a0.88,0.88,0,0,1-1,1h-16v0.91c0,2.89,1.87,4.36,4.87,4.36a13.93,13.93,0,0,0,7.19-2,0.81,0.81,0,0,1,1.3.23l2.95,3.91a1,1,0,0,1-.17,1.42,18.3,18.3,0,0,1-11.56,3.74c-7.36,0-13.31-3.91-13.31-11.78v-7.14c0-8.44,5.95-12.07,13.14-12.07,7,0,12.63,3.51,12.63,12.07v5.44ZM93,95.27c-2.61,0-4.36,1.36-4.36,4.47v1.19h8.72V99.74C97.31,96.68,95.5,95.27,93,95.27Z"/><path class="cls-1" d="M137.76,88.13c7.48,0,12.63,4.42,12.63,12.4V117.3a0.88,0.88,0,0,1-1,1h-6.57a0.9,0.9,0,0,1-1-1v-17c0-2.78-1.36-4.42-4.36-4.42a7.86,7.86,0,0,0-3.68.91,11.15,11.15,0,0,1,.57,3.68V117.3a0.88,0.88,0,0,1-1,1h-6.57a0.9,0.9,0,0,1-1-1v-17c0-2.95-1.36-4.47-4.13-4.47a11.83,11.83,0,0,0-3.34.51v21a0.92,0.92,0,0,1-1,1h-6.57a0.9,0.9,0,0,1-1-1V91.59a1.27,1.27,0,0,1,.79-1.25,30.25,30.25,0,0,1,11-2.21,13.09,13.09,0,0,1,7.7,2.38A17.1,17.1,0,0,1,137.76,88.13Z"/><path class="cls-1" d="M169.31,88.07c7.25,0,12.24,4.87,12.24,12.52v5.61c0,8.1-5.49,12.86-13.42,12.86a38.08,38.08,0,0,1-12-2,1.16,1.16,0,0,1-.79-1.19v-37a0.9,0.9,0,0,1,1-1h6.68a0.88,0.88,0,0,1,1,1V89A16.47,16.47,0,0,1,169.31,88.07Zm3.46,18.3v-5.89c0-3.29-1.7-4.87-4.76-4.87a8.54,8.54,0,0,0-4,1v14.16a11.79,11.79,0,0,0,3.91.62C171,111.36,172.76,109.88,172.76,106.37Z"/><path class="cls-1" d="M210.83,105.58a0.88,0.88,0,0,1-1,1h-16v0.91c0,2.89,1.87,4.36,4.87,4.36a13.93,13.93,0,0,0,7.19-2,0.81,0.81,0,0,1,1.3.23l2.95,3.91a1,1,0,0,1-.17,1.42,18.3,18.3,0,0,1-11.56,3.74c-7.36,0-13.31-3.91-13.31-11.78v-7.14c0-8.44,5.95-12.07,13.14-12.07,7,0,12.63,3.51,12.63,12.07v5.44ZM193.95,85.3a0.69,0.69,0,0,1-.62-1.19L198,76.75a1.33,1.33,0,0,1,1.19-.68h6.4c0.79,0,1.08.57,0.51,1.25l-6,7.42a1.42,1.42,0,0,1-1.19.57h-4.93Zm4.19,10c-2.61,0-4.36,1.36-4.36,4.47v1.19h8.72V99.74C202.5,96.68,200.69,95.27,198.14,95.27Z"/><path class="cls-2" d="M83.38,120.79a0.33,0.33,0,0,1,.16.26,0.26,0.26,0,0,1-.32.26,0.49,0.49,0,0,1-.25-0.08,2.27,2.27,0,0,0-.91-0.32q-0.82,0-1.83,1.63-3.57,5.79-5.18,15.18,1.38-2.33,2.05-3.3A19.11,19.11,0,0,1,80,131.12a2,2,0,0,1,1.28-.65,2.14,2.14,0,0,1,.91.37,1.6,1.6,0,0,1,1.07,1.68,16.4,16.4,0,0,1-1.28,5,11.54,11.54,0,0,1-2.45,3.8,1.18,1.18,0,0,1-.82.38q-0.86,0-2.38-2a0.68,0.68,0,0,1-.17-0.38,0.19,0.19,0,0,1,.23-0.2,0.66,0.66,0,0,1,.44.19,2.26,2.26,0,0,0,1.34.66,1.38,1.38,0,0,0,1-.64,11.79,11.79,0,0,0,1.65-3.16,11.59,11.59,0,0,0,.85-4q0-.69-0.46-0.69a1,1,0,0,0-.6.28,18.67,18.67,0,0,0-3.31,4,22.46,22.46,0,0,0-2.58,5.34,0.54,0.54,0,0,1-.37.49,0.54,0.54,0,0,1-.28-0.12q-0.68-.45-0.77-0.53a0.93,0.93,0,0,1-.26-0.69,2.5,2.5,0,0,1,.07-0.52,73.39,73.39,0,0,1,4-14.36q1.83-4.46,3.28-5.8a1.12,1.12,0,0,1,.74-0.36,1.71,1.71,0,0,1,.94.44Z"/><path class="cls-2" d="M87.88,132.34a52.63,52.63,0,0,1-1.65,5.94A9.08,9.08,0,0,0,87.29,137a0.25,0.25,0,0,1,.19-0.12q0.21,0,.05.37-0.07.15-1.11,1.81a13.18,13.18,0,0,0-1.16,2.25,0.44,0.44,0,0,1-.44.3,1.94,1.94,0,0,1-.86-0.3,0.61,0.61,0,0,1-.34-0.28,1,1,0,0,1,.15-0.34,21.83,21.83,0,0,0,1.59-4.21,23.31,23.31,0,0,0,.94-4.25q0-.6-0.12-0.6a0.91,0.91,0,0,0-.42.29l-0.82.77q-0.44.4-.44,0a0.48,0.48,0,0,1,.12-0.26,18.74,18.74,0,0,1,1.32-1.65,0.59,0.59,0,0,1,.41-0.23,1.27,1.27,0,0,1,.62.29,5.39,5.39,0,0,1,.68.2,0.74,0.74,0,0,1,.3.69A3.21,3.21,0,0,1,87.88,132.34Zm1.87-5.8a0.45,0.45,0,0,1,.21.36,2.36,2.36,0,0,1-1.14,1.19,1.87,1.87,0,0,1-1.46.37,1.73,1.73,0,0,1-.69-0.29,0.59,0.59,0,0,1-.14-0.17,0.15,0.15,0,0,1,0-.14,0.15,0.15,0,0,1,.16,0,16.22,16.22,0,0,0,1.6-1.52,0.88,0.88,0,0,1,.44-0.34A2.74,2.74,0,0,1,89.75,126.54Z"/><path class="cls-2" d="M97.8,133a13.42,13.42,0,0,1-.57,3.12,11.42,11.42,0,0,1-2.44,4.77,2.49,2.49,0,0,1-1.85.9,4,4,0,0,1-1-.17,3.24,3.24,0,0,1-2-.78,2.39,2.39,0,0,1-.79-2,14,14,0,0,1,1-3.92A12.45,12.45,0,0,1,92.16,131a1.38,1.38,0,0,1,.85-0.58,2.91,2.91,0,0,1,1.46.93l1.14-.49a2.31,2.31,0,0,1,.66-0.15,1.7,1.7,0,0,1,1.15,1A2.14,2.14,0,0,1,97.8,133Zm-1.52.38q0.09-.89.09-1.13,0-.56-0.34-0.56a1.49,1.49,0,0,0-.34.05l-2.05.83a2.29,2.29,0,0,1-.41.15,0.33,0.33,0,0,1-.21-0.25,9.69,9.69,0,0,0-1.43,2.71,14.86,14.86,0,0,0-.71,2.49,7.06,7.06,0,0,0-.15,1.35q0,2,1.26,2a2.11,2.11,0,0,0,1.09-.4,6.84,6.84,0,0,0,2.08-3A14.14,14.14,0,0,0,96.28,133.34Z"/><path class="cls-2" d="M108.89,133.18a16.22,16.22,0,0,1-1.18,4.81,9.46,9.46,0,0,1-1.88,3.27,1.59,1.59,0,0,1-1.07.49,4.53,4.53,0,0,1-2-1,0.5,0.5,0,0,1-.28-0.38q0-.25.36-0.25a1.47,1.47,0,0,1,.42.09,1.5,1.5,0,0,0,.45.09,2.13,2.13,0,0,0,1.73-1.23,13.64,13.64,0,0,0,1.23-2.85,10.92,10.92,0,0,0,.61-3.83q0-.77-0.52-0.77a1.68,1.68,0,0,0-1,.58,22.46,22.46,0,0,0-6,9.81,34.8,34.8,0,0,0-1.32,6q0,0.09-.36,4.59-0.05.65-.32,0.65a2.14,2.14,0,0,1-1-.65,1.21,1.21,0,0,1-.4-1.16,67.86,67.86,0,0,1,3.19-14.68,42.93,42.93,0,0,1,3.26-8.21,1.81,1.81,0,0,1,1.27-1.07,5.69,5.69,0,0,1,2.12,1,0.36,0.36,0,0,1,.21.28q0,0.2-.32.2l-0.26,0-0.28,0a2.41,2.41,0,0,0-1.73,1.42,18.75,18.75,0,0,0-1.34,2.71,29.57,29.57,0,0,0-1.16,3.14,23.74,23.74,0,0,1,4.53-5.45,1.16,1.16,0,0,1,.71-0.34A4.16,4.16,0,0,1,108.89,133.18Z"/><path class="cls-2" d="M119.14,132.52a41.7,41.7,0,0,0-1.68,5.67,7,7,0,0,0,.52-0.57,5.46,5.46,0,0,1,.4-0.45,0.51,0.51,0,0,1,.4-0.24,0.18,0.18,0,0,1,.2.2,0.52,0.52,0,0,1-.11.28,10.73,10.73,0,0,0-1.65,3.72,0.53,0.53,0,0,1-.36.53,2,2,0,0,1-.83-0.42,1,1,0,0,1-.41-0.4,1.22,1.22,0,0,1,0-.58,30.25,30.25,0,0,1,1.39-5.59,31.59,31.59,0,0,1-3.14,4.13,18.41,18.41,0,0,1-2.5,2.52,1.75,1.75,0,0,1-.85.38,1.46,1.46,0,0,1-.73-0.38,1.3,1.3,0,0,1-.7-1.16,2.37,2.37,0,0,1,0-.33,12.65,12.65,0,0,1,1.72-4.56,18.35,18.35,0,0,1,3.4-4.39,1.68,1.68,0,0,1,1.11-.57,4.46,4.46,0,0,1,1.81,1.26,0.3,0.3,0,0,1,.12.23q0,0.21-.28.21a0.5,0.5,0,0,1-.2,0,1.46,1.46,0,0,0-1.51,0,12.58,12.58,0,0,0-2.75,3.22,12.84,12.84,0,0,0-2.1,4.77,1.22,1.22,0,0,0,0,.17,0.27,0.27,0,0,0,.26.33,1.7,1.7,0,0,0,1.07-.62,35.18,35.18,0,0,0,3.18-3.63,18.36,18.36,0,0,0,2.22-3.42q0.36-.85.46-1.19A0.69,0.69,0,0,1,118,131a2.57,2.57,0,0,1,.93.54,0.72,0.72,0,0,1,.33.41A1.31,1.31,0,0,1,119.14,132.52Z"/><path class="cls-2" d="M128.83,131.38a11.67,11.67,0,0,1-.46,3.31,0.52,0.52,0,0,1-.4.48,2.13,2.13,0,0,1-.82-0.53,0.64,0.64,0,0,1-.16-0.75,7,7,0,0,0,.37-1.93q0-.25-0.11-0.25a1.05,1.05,0,0,0-.52.48,25.19,25.19,0,0,0-4.12,8q-0.44,1.42-.74,1.42a5.68,5.68,0,0,1-1-.46,0.69,0.69,0,0,1-.3-0.87,58.38,58.38,0,0,1,2.25-7.73,15.28,15.28,0,0,0-1.24,1.42,0.33,0.33,0,0,1-.29.16A0.19,0.19,0,0,1,121,134a0.46,0.46,0,0,1,.11-0.26q0.65-.78,1.73-2.38a0.91,0.91,0,0,1,.66-0.58,2.91,2.91,0,0,1,1,.37,0.33,0.33,0,0,1,.13.57,15.08,15.08,0,0,0-1.1,2.71q-0.77,2.26-1.06,3.55a37.47,37.47,0,0,1,4.09-7.08,1.18,1.18,0,0,1,.7-0.58,1.22,1.22,0,0,1,.65.32,1.79,1.79,0,0,1,.7.17A0.74,0.74,0,0,1,128.83,131.38Z"/><path class="cls-2" d="M138,131.33a0.67,0.67,0,0,1,.23.5,8.86,8.86,0,0,1-.64,1.69,48.64,48.64,0,0,0-2,6.16q-0.87,3.22-1.2,5a15.79,15.79,0,0,1,1.22-2,0.45,0.45,0,0,1,.38-0.2,0.27,0.27,0,0,1,.32.29,0.56,0.56,0,0,1-.08.26,20.68,20.68,0,0,0-2.66,9.24q-0.07,1.22-.3,1.22a3.54,3.54,0,0,1-1.22-1,1.2,1.2,0,0,1-.36-0.89q0-.13.25-1.8,0.44-2.93,1.5-7.24,0.87-3.56,1.3-4.79a13.18,13.18,0,0,1-3.14,3.73,0.88,0.88,0,0,1-.56.2,1.38,1.38,0,0,1-.89-0.38,3.33,3.33,0,0,1-1.23-.62,1.47,1.47,0,0,1-.4-1.16,11.72,11.72,0,0,1,1.27-4.47,12.27,12.27,0,0,1,2.4-3.61,2.35,2.35,0,0,1,1.55-.81,4.41,4.41,0,0,1,2.21,1.38,0.46,0.46,0,0,1,.2.3q0,0.17-.28.17a0.89,0.89,0,0,1-.32-0.07,4,4,0,0,0-1.18-.32,2.1,2.1,0,0,0-1.51,1,14.47,14.47,0,0,0-1.83,3,9,9,0,0,0-1,3.75q0,0.93.62,0.93a1.27,1.27,0,0,0,.83-0.44,18.22,18.22,0,0,0,2.85-3.72,24.42,24.42,0,0,0,1.58-3,12.7,12.7,0,0,0,.73-2l0.05-.53a0.33,0.33,0,0,1,.25-0.34A2,2,0,0,1,138,131.33Z"/><path class="cls-2" d="M148.78,131.74a27.35,27.35,0,0,0-2.63,7.68q0.37-.65.9-1.65a0.23,0.23,0,0,1,.21-0.19,0.2,0.2,0,0,1,.2.25,0.44,0.44,0,0,1,0,.17,20.93,20.93,0,0,0-1.11,3,0.69,0.69,0,0,1-.42.66,2.6,2.6,0,0,1-1-.52,1,1,0,0,1-.28-1,32.65,32.65,0,0,1,1.34-5,47.23,47.23,0,0,1-4.29,6.13,1.11,1.11,0,0,1-.83.44,1.76,1.76,0,0,1-.87-0.3,0.93,0.93,0,0,1-.91-1,2.1,2.1,0,0,1,0-.32,21.26,21.26,0,0,1,1.38-6.29l-0.68.62a0.22,0.22,0,0,1-.26.08q-0.11-.08,0-0.3a9.92,9.92,0,0,0,.85-1.38,6.46,6.46,0,0,1,.86-1.6,0.66,0.66,0,0,1,.5-0.29,2.31,2.31,0,0,1,1,.42,0.32,0.32,0,0,1,.19.24l-0.29.44a14.35,14.35,0,0,0-1.4,3.55,17.21,17.21,0,0,0-.82,4.49q0,0.57.24,0.57a1.36,1.36,0,0,0,.69-0.49,31.63,31.63,0,0,0,3-4.1,35.38,35.38,0,0,0,2.07-3.47,4.17,4.17,0,0,1,1-1.59,0.79,0.79,0,0,1,.42-0.16,2,2,0,0,1,.71.28,1,1,0,0,1,.53.41,0.18,0.18,0,0,1-.09.11A0.41,0.41,0,0,0,148.78,131.74Z"/><path class="cls-2" d="M156.34,137.57q-3.22,4.12-4.53,4.12a2.68,2.68,0,0,1-1.58-.86,1.41,1.41,0,0,1-1-1.24,1.85,1.85,0,0,1,0-.3,22,22,0,0,1,1-4,0.72,0.72,0,0,1-.49-0.48q0-.19.28-0.19a0.93,0.93,0,0,1,.44.12,16.64,16.64,0,0,1,2.12-3.76,1.62,1.62,0,0,1,1.1-.74,4.25,4.25,0,0,1,1.11.38,0.34,0.34,0,0,1,.23-0.46h0.62q0.57,0,.57.2a1.69,1.69,0,0,1,0,.23,1.65,1.65,0,0,0,0,.34q0,0.48,0,1.18t0,0.94a2.64,2.64,0,0,1-.9,2.29,3.08,3.08,0,0,1-1.85.6,9.21,9.21,0,0,1-1.8-.29,7.31,7.31,0,0,0-.5,1.6,10.38,10.38,0,0,0-.34,2.67q0,0.69.44,0.69a1.43,1.43,0,0,0,.41-0.08,13.8,13.8,0,0,0,4.28-3.31,0.5,0.5,0,0,1,.34-0.17,0.22,0.22,0,0,1,.25.24A0.48,0.48,0,0,1,156.34,137.57Zm-1.55-5.85q0-.52-0.23-0.52a0.84,0.84,0,0,0-.42.21,8.45,8.45,0,0,0-2.28,3.67q0.26,0,.93.08a2.06,2.06,0,0,0,1.6-.49,1.93,1.93,0,0,0,.44-1.31Q154.79,134,154.79,131.71Z"/></svg>